<svg xmlns="http://www.w3.org/2000/svg" width="1280" height="640" viewBox="0 0 1280 640" role="img" aria-label="BetterChat">
  <defs>
    <linearGradient id="tile-s" x1="0" y1="0" x2="1" y2="1">
      <stop offset="0%" stop-color="#6b8cff" stop-opacity="0.3" />
      <stop offset="100%" stop-color="#141c40" stop-opacity="0.95" />
    </linearGradient>
    <linearGradient id="wash-s" x1="0" y1="0" x2="0.85" y2="1">
      <stop offset="0%" stop-color="#141c40" stop-opacity="0.85" />
      <stop offset="70%" stop-color="#0b0f0e" stop-opacity="1" />
    </linearGradient>
    <radialGradient id="glow-s" cx="0.12" cy="0" r="1">
      <stop offset="0%" stop-color="#6b8cff" stop-opacity="0.3" />
      <stop offset="60%" stop-color="#6b8cff" stop-opacity="0" />
    </radialGradient>
    <pattern id="grid-s" width="40" height="40" patternUnits="userSpaceOnUse">
      <path d="M40 0H0V40" fill="none" stroke="#c3cfff" stroke-opacity="0.1" stroke-width="1" />
    </pattern>
  </defs>
    <rect width="1280" height="640" fill="#0b0f0e" />
    <rect width="1280" height="640" fill="url(#wash-s)" />
    <rect width="1280" height="640" fill="url(#glow-s)" />
    <rect width="1280" height="640" fill="url(#grid-s)" />
    <rect x="120" y="116" width="116" height="116" rx="34.8"
      fill="url(#tile-s)" stroke="#c3cfff" stroke-opacity="0.22" stroke-width="1.39" />
    <g transform="translate(136.24 132.24) scale(0.8700)">
      <ellipse fill="#0c1126" opacity="0.45" cx="44" cy="89" rx="26" ry="4.16" />
      <path fill="#6b8cff" d="M20 14H76A10 10 0 0 1 86 24V58A10 10 0 0 1 76 68H42L26 84V68H20A10 10 0 0 1 10 58V24A10 10 0 0 1 20 14Z" />
      <circle fill="#0c1126" cx="36" cy="38" r="4.6" />
      <circle fill="#0c1126" cx="60" cy="38" r="4.6" />
      <path fill="none" stroke="#0c1126" stroke-width="4.2" stroke-linecap="round" stroke-linejoin="round" d="M36 50q12 11 24 0" />
      <path fill="#c3cfff" d="M80 10.5Q81.43 14.57 85.5 16Q81.43 17.43 80 21.5Q78.57 17.43 74.5 16Q78.57 14.57 80 10.5Z" />
    </g>
    <text x="120" y="292" font-family="Nunito, -apple-system, BlinkMacSystemFont, 'Segoe UI', Helvetica, Arial, sans-serif" font-size="26" font-weight="700" letter-spacing="5.6" fill="#c3cfff">CHAT WITHOUT CLUTTER</text>
    <text x="120" y="368" font-family="Nunito, -apple-system, BlinkMacSystemFont, 'Segoe UI', Helvetica, Arial, sans-serif" font-size="76" font-weight="800" fill="#ffffff">BetterChat</text>
    <text x="120" y="424" font-family="Nunito, -apple-system, BlinkMacSystemFont, 'Segoe UI', Helvetica, Arial, sans-serif" font-size="30" font-weight="500" fill="#c9d1ce">A simpler ChatGPT client with less clutter.</text>
    <text x="120" y="548" font-family="Nunito, -apple-system, BlinkMacSystemFont, 'Segoe UI', Helvetica, Arial, sans-serif" font-size="26" font-weight="600" letter-spacing="1.6" fill="#8f9a96">TypeScript  •  Experiment</text>
    <text x="120" y="598" font-family="Nunito, -apple-system, BlinkMacSystemFont, 'Segoe UI', Helvetica, Arial, sans-serif" font-size="24" font-weight="600" letter-spacing="1.2" fill="#6f7a76">github.com/Kurtis24/BetterChat</text>
    <rect x="0" y="634" width="1280" height="6" fill="#6b8cff" fill-opacity="0.85" />
</svg>
