<svg xmlns="http://www.w3.org/2000/svg" width="1280" height="640" viewBox="0 0 1280 640" role="img" aria-label="Hackalytics">
  <defs>
    <linearGradient id="tile-s" x1="0" y1="0" x2="1" y2="1">
      <stop offset="0%" stop-color="#2fd4a7" stop-opacity="0.3" />
      <stop offset="100%" stop-color="#08322b" stop-opacity="0.95" />
    </linearGradient>
    <linearGradient id="wash-s" x1="0" y1="0" x2="0.85" y2="1">
      <stop offset="0%" stop-color="#08322b" stop-opacity="0.85" />
      <stop offset="70%" stop-color="#0b0f0e" stop-opacity="1" />
    </linearGradient>
    <radialGradient id="glow-s" cx="0.12" cy="0" r="1">
      <stop offset="0%" stop-color="#2fd4a7" stop-opacity="0.3" />
      <stop offset="60%" stop-color="#2fd4a7" stop-opacity="0" />
    </radialGradient>
    <pattern id="grid-s" width="40" height="40" patternUnits="userSpaceOnUse">
      <path d="M40 0H0V40" fill="none" stroke="#9df0d8" stroke-opacity="0.1" stroke-width="1" />
    </pattern>
  </defs>
    <rect width="1280" height="640" fill="#0b0f0e" />
    <rect width="1280" height="640" fill="url(#wash-s)" />
    <rect width="1280" height="640" fill="url(#glow-s)" />
    <rect width="1280" height="640" fill="url(#grid-s)" />
    <rect x="120" y="116" width="116" height="116" rx="34.8"
      fill="url(#tile-s)" stroke="#9df0d8" stroke-opacity="0.22" stroke-width="1.39" />
    <g transform="translate(136.24 132.24) scale(0.8700)">
      <ellipse fill="#051e1a" opacity="0.45" cx="48" cy="88" rx="32" ry="5.12" />
      <rect fill="#08322b" x="13" y="54" width="18" height="30" rx="7" />
      <rect fill="#2fd4a7" x="38" y="40" width="18" height="44" rx="7" />
      <rect fill="#b0efde" x="63" y="24" width="18" height="60" rx="7" />
      <path fill="none" stroke="#9df0d8" stroke-width="4.5" stroke-linecap="round" stroke-linejoin="round" d="M20 44q20-26 46-28" />
      <path fill="#9df0d8" d="M60 8 78 15 64 26Z" />
      <path fill="#9df0d8" d="M26 15Q27.3 18.7 31 20Q27.3 21.3 26 25Q24.7 21.3 21 20Q24.7 18.7 26 15Z" />
    </g>
    <text x="120" y="292" font-family="Nunito, -apple-system, BlinkMacSystemFont, 'Segoe UI', Helvetica, Arial, sans-serif" font-size="26" font-weight="700" letter-spacing="5.6" fill="#9df0d8">MARKET PRICING GAPS</text>
    <text x="120" y="368" font-family="Nunito, -apple-system, BlinkMacSystemFont, 'Segoe UI', Helvetica, Arial, sans-serif" font-size="76" font-weight="800" fill="#ffffff">Hackalytics</text>
    <text x="120" y="424" font-family="Nunito, -apple-system, BlinkMacSystemFont, 'Segoe UI', Helvetica, Arial, sans-serif" font-size="30" font-weight="500" fill="#c9d1ce">A site that looks for pricing gaps in sports and prediction</text>
    <text x="120" y="464" font-family="Nunito, -apple-system, BlinkMacSystemFont, 'Segoe UI', Helvetica, Arial, sans-serif" font-size="30" font-weight="500" fill="#c9d1ce">markets using a PyTorch model.</text>
    <text x="120" y="548" font-family="Nunito, -apple-system, BlinkMacSystemFont, 'Segoe UI', Helvetica, Arial, sans-serif" font-size="26" font-weight="600" letter-spacing="1.6" fill="#8f9a96">Python</text>
    <text x="120" y="598" font-family="Nunito, -apple-system, BlinkMacSystemFont, 'Segoe UI', Helvetica, Arial, sans-serif" font-size="24" font-weight="600" letter-spacing="1.2" fill="#6f7a76">github.com/Kurtis24/Hackalytics_Repo</text>
    <rect x="0" y="634" width="1280" height="6" fill="#2fd4a7" fill-opacity="0.85" />
</svg>
