<svg xmlns="http://www.w3.org/2000/svg" width="1280" height="640" viewBox="0 0 1280 640" role="img" aria-label="Individual Planner">
  <defs>
    <linearGradient id="tile-s" x1="0" y1="0" x2="1" y2="1">
      <stop offset="0%" stop-color="#ffc94d" stop-opacity="0.3" />
      <stop offset="100%" stop-color="#40300a" stop-opacity="0.95" />
    </linearGradient>
    <linearGradient id="wash-s" x1="0" y1="0" x2="0.85" y2="1">
      <stop offset="0%" stop-color="#40300a" stop-opacity="0.85" />
      <stop offset="70%" stop-color="#0b0f0e" stop-opacity="1" />
    </linearGradient>
    <radialGradient id="glow-s" cx="0.12" cy="0" r="1">
      <stop offset="0%" stop-color="#ffc94d" stop-opacity="0.3" />
      <stop offset="60%" stop-color="#ffc94d" stop-opacity="0" />
    </radialGradient>
    <pattern id="grid-s" width="40" height="40" patternUnits="userSpaceOnUse">
      <path d="M40 0H0V40" fill="none" stroke="#ffe6a8" stroke-opacity="0.1" stroke-width="1" />
    </pattern>
  </defs>
    <rect width="1280" height="640" fill="#0b0f0e" />
    <rect width="1280" height="640" fill="url(#wash-s)" />
    <rect width="1280" height="640" fill="url(#glow-s)" />
    <rect width="1280" height="640" fill="url(#grid-s)" />
    <rect x="120" y="116" width="116" height="116" rx="34.8"
      fill="url(#tile-s)" stroke="#ffe6a8" stroke-opacity="0.22" stroke-width="1.39" />
    <g transform="translate(136.24 132.24) scale(0.8700)">
      <ellipse fill="#261d06" opacity="0.45" cx="46" cy="89" rx="30" ry="4.8" />
      <rect fill="#261d06" x="28" y="6" width="7" height="14" rx="3.5" />
      <rect fill="#261d06" x="55" y="6" width="7" height="14" rx="3.5" />
      <rect fill="#ffc94d" x="15" y="13" width="60" height="70" rx="11" />
      <rect fill="#ffeabb" x="22" y="26" width="46" height="50" rx="6" />
      <rect fill="#40300a" x="28" y="56" width="8" height="14" rx="3" />
      <rect fill="#40300a" x="41" y="47" width="8" height="23" rx="3" />
      <rect fill="#40300a" x="54" y="38" width="8" height="32" rx="3" />
      <circle fill="#ffe6a8" cx="76" cy="71" r="12" />
      <circle fill="none" stroke="#40300a" stroke-width="2.6" stroke-linecap="round" stroke-linejoin="round" cx="76" cy="71" r="7" />
      <path fill="#ffe6a8" d="M82 19Q83.3 22.7 87 24Q83.3 25.3 82 29Q80.7 25.3 77 24Q80.7 22.7 82 19Z" />
    </g>
    <text x="120" y="292" font-family="Nunito, -apple-system, BlinkMacSystemFont, 'Segoe UI', Helvetica, Arial, sans-serif" font-size="26" font-weight="700" letter-spacing="5.6" fill="#ffe6a8">STUDENT MONEY TRACKER</text>
    <text x="120" y="368" font-family="Nunito, -apple-system, BlinkMacSystemFont, 'Segoe UI', Helvetica, Arial, sans-serif" font-size="76" font-weight="800" fill="#ffffff">Individual Planner</text>
    <text x="120" y="424" font-family="Nunito, -apple-system, BlinkMacSystemFont, 'Segoe UI', Helvetica, Arial, sans-serif" font-size="30" font-weight="500" fill="#c9d1ce">A spending and portfolio tracker for students.</text>
    <text x="120" y="548" font-family="Nunito, -apple-system, BlinkMacSystemFont, 'Segoe UI', Helvetica, Arial, sans-serif" font-size="26" font-weight="600" letter-spacing="1.6" fill="#8f9a96">Personal</text>
    <text x="120" y="598" font-family="Nunito, -apple-system, BlinkMacSystemFont, 'Segoe UI', Helvetica, Arial, sans-serif" font-size="24" font-weight="600" letter-spacing="1.2" fill="#6f7a76">github.com/Kurtis24/Individual-Planner</text>
    <rect x="0" y="634" width="1280" height="6" fill="#ffc94d" fill-opacity="0.85" />
</svg>
