<svg xmlns="http://www.w3.org/2000/svg" width="512" height="512" viewBox="0 0 512 512" role="img" aria-label="PokerBot logo">
  <defs>
    <linearGradient id="tile-i" x1="0" y1="0" x2="1" y2="1">
      <stop offset="0%" stop-color="#ff5d6c" stop-opacity="0.3" />
      <stop offset="100%" stop-color="#3f0f16" stop-opacity="0.95" />
    </linearGradient>
    <linearGradient id="wash-i" x1="0" y1="0" x2="0.85" y2="1">
      <stop offset="0%" stop-color="#3f0f16" stop-opacity="0.85" />
      <stop offset="70%" stop-color="#0b0f0e" stop-opacity="1" />
    </linearGradient>
    <radialGradient id="glow-i" cx="0.12" cy="0" r="1">
      <stop offset="0%" stop-color="#ff5d6c" stop-opacity="0.3" />
      <stop offset="60%" stop-color="#ff5d6c" stop-opacity="0" />
    </radialGradient>
    <pattern id="grid-i" width="64" height="64" patternUnits="userSpaceOnUse">
      <path d="M64 0H0V64" fill="none" stroke="#ffb8be" stroke-opacity="0.1" stroke-width="1" />
    </pattern>
  </defs>
    <rect width="512" height="512" rx="112" fill="#0b0f0e" />
    <rect width="512" height="512" rx="112" fill="url(#wash-i)" />
    <rect width="512" height="512" rx="112" fill="url(#glow-i)" />
    <rect width="512" height="512" rx="112" fill="url(#grid-i)" />
    <g transform="translate(112 112) scale(3.0000)">
      <ellipse fill="#26090d" opacity="0.45" cx="48" cy="90" rx="30" ry="4.8" />
      <line fill="none" stroke="#ffc1c7" stroke-width="3.6" stroke-linecap="round" stroke-linejoin="round" x1="48" y1="14" x2="48" y2="6" />
      <circle fill="#ffb8be" cx="48" cy="4" r="3.6" />
      <rect fill="#ffc1c7" x="29" y="12" width="38" height="32" rx="12" />
      <circle fill="#26090d" cx="40" cy="27" r="3.6" />
      <circle fill="#26090d" cx="56" cy="27" r="3.6" />
      <rect fill="#ffc1c7" transform="rotate(-15 32 63)" x="17" y="40" width="30" height="46" rx="7" />
      <rect fill="#ffffff" transform="rotate(13 64 63)" x="49" y="40" width="30" height="46" rx="7" />
      <path fill="#ff5d6c" transform="rotate(-15 32 63)" d="M32 55 40 64 32 73 24 64Z" />
      <path fill="#ff5d6c" d="M64 69.02C50.95 60.92 57.52 52.82 64 58.94C70.48 52.82 77.05 60.92 64 69.02Z" />
    </g>
</svg>
