<svg xmlns="http://www.w3.org/2000/svg" width="1280" height="640" viewBox="0 0 1280 640" role="img" aria-label="Scam-Mah">
  <defs>
    <linearGradient id="tile-s" x1="0" y1="0" x2="1" y2="1">
      <stop offset="0%" stop-color="#ffb02e" stop-opacity="0.3" />
      <stop offset="100%" stop-color="#402604" stop-opacity="0.95" />
    </linearGradient>
    <linearGradient id="wash-s" x1="0" y1="0" x2="0.85" y2="1">
      <stop offset="0%" stop-color="#402604" stop-opacity="0.85" />
      <stop offset="70%" stop-color="#0b0f0e" stop-opacity="1" />
    </linearGradient>
    <radialGradient id="glow-s" cx="0.12" cy="0" r="1">
      <stop offset="0%" stop-color="#ffb02e" stop-opacity="0.3" />
      <stop offset="60%" stop-color="#ffb02e" stop-opacity="0" />
    </radialGradient>
    <pattern id="grid-s" width="40" height="40" patternUnits="userSpaceOnUse">
      <path d="M40 0H0V40" fill="none" stroke="#ffe0a0" stroke-opacity="0.1" stroke-width="1" />
    </pattern>
  </defs>
    <rect width="1280" height="640" fill="#0b0f0e" />
    <rect width="1280" height="640" fill="url(#wash-s)" />
    <rect width="1280" height="640" fill="url(#glow-s)" />
    <rect width="1280" height="640" fill="url(#grid-s)" />
    <rect x="120" y="116" width="116" height="116" rx="34.8"
      fill="url(#tile-s)" stroke="#ffe0a0" stroke-opacity="0.22" stroke-width="1.39" />
    <g transform="translate(136.24 132.24) scale(0.8700)">
      <ellipse fill="#261702" opacity="0.45" cx="48" cy="90" rx="28" ry="4.48" />
      <rect fill="#ffb02e" x="26" y="6" width="44" height="80" rx="13" />
      <rect fill="#ffe1b0" x="32" y="15" width="32" height="41" rx="8" />
      <circle fill="#261702" cx="42" cy="32" r="3.6" />
      <circle fill="#261702" cx="54" cy="32" r="3.6" />
      <path fill="none" stroke="#261702" stroke-width="3.4" stroke-linecap="round" stroke-linejoin="round" d="M41 45q7 6 14 0" />
      <path fill="#ffe0a0" d="M69 52 88 59v13c0 11-9 18-19 21-10-3-19-10-19-21V59Z" />
      <path fill="none" stroke="#402604" stroke-width="4.4" stroke-linecap="round" stroke-linejoin="round" d="M60 72l6 6 12-13" />
      <path fill="#ffe0a0" d="M15 15.5Q16.43 19.57 20.5 21Q16.43 22.43 15 26.5Q13.57 22.43 9.5 21Q13.57 19.57 15 15.5Z" />
      <path fill="#ffe0a0" d="M86 19.5Q87.17 22.83 90.5 24Q87.17 25.17 86 28.5Q84.83 25.17 81.5 24Q84.83 22.83 86 19.5Z" />
    </g>
    <text x="120" y="292" font-family="Nunito, -apple-system, BlinkMacSystemFont, 'Segoe UI', Helvetica, Arial, sans-serif" font-size="26" font-weight="700" letter-spacing="5.6" fill="#ffe0a0">SCAM CALLERS, ANSWERED</text>
    <text x="120" y="368" font-family="Nunito, -apple-system, BlinkMacSystemFont, 'Segoe UI', Helvetica, Arial, sans-serif" font-size="76" font-weight="800" fill="#ffffff">Scam-Mah</text>
    <text x="120" y="424" font-family="Nunito, -apple-system, BlinkMacSystemFont, 'Segoe UI', Helvetica, Arial, sans-serif" font-size="30" font-weight="500" fill="#c9d1ce">An AI that picks up scam calls and keeps the caller talking.</text>
    <text x="120" y="548" font-family="Nunito, -apple-system, BlinkMacSystemFont, 'Segoe UI', Helvetica, Arial, sans-serif" font-size="26" font-weight="600" letter-spacing="1.6" fill="#8f9a96">Python  •  Hackathon</text>
    <text x="120" y="598" font-family="Nunito, -apple-system, BlinkMacSystemFont, 'Segoe UI', Helvetica, Arial, sans-serif" font-size="24" font-weight="600" letter-spacing="1.2" fill="#6f7a76">github.com/nicholasching/Scam-Mah</text>
    <rect x="0" y="634" width="1280" height="6" fill="#ffb02e" fill-opacity="0.85" />
</svg>
