<svg xmlns="http://www.w3.org/2000/svg" width="1280" height="640" viewBox="0 0 1280 640" role="img" aria-label="Vital Monitoring Robot">
  <defs>
    <linearGradient id="tile-s" x1="0" y1="0" x2="1" y2="1">
      <stop offset="0%" stop-color="#8ab4d8" stop-opacity="0.3" />
      <stop offset="100%" stop-color="#182430" stop-opacity="0.95" />
    </linearGradient>
    <linearGradient id="wash-s" x1="0" y1="0" x2="0.85" y2="1">
      <stop offset="0%" stop-color="#182430" stop-opacity="0.85" />
      <stop offset="70%" stop-color="#0b0f0e" stop-opacity="1" />
    </linearGradient>
    <radialGradient id="glow-s" cx="0.12" cy="0" r="1">
      <stop offset="0%" stop-color="#8ab4d8" stop-opacity="0.3" />
      <stop offset="60%" stop-color="#8ab4d8" stop-opacity="0" />
    </radialGradient>
    <pattern id="grid-s" width="40" height="40" patternUnits="userSpaceOnUse">
      <path d="M40 0H0V40" fill="none" stroke="#d6e6f2" stroke-opacity="0.1" stroke-width="1" />
    </pattern>
  </defs>
    <rect width="1280" height="640" fill="#0b0f0e" />
    <rect width="1280" height="640" fill="url(#wash-s)" />
    <rect width="1280" height="640" fill="url(#glow-s)" />
    <rect width="1280" height="640" fill="url(#grid-s)" />
    <rect x="120" y="116" width="116" height="116" rx="34.8"
      fill="url(#tile-s)" stroke="#d6e6f2" stroke-opacity="0.22" stroke-width="1.39" />
    <g transform="translate(136.24 132.24) scale(0.8700)">
      <line fill="none" stroke="#d3e3f0" stroke-width="4" stroke-linecap="round" stroke-linejoin="round" x1="48" y1="20" x2="48" y2="9" />
      <circle fill="#d6e6f2" cx="48" cy="6" r="4.2" />
      <rect fill="#8ab4d8" x="19" y="18" width="58" height="40" rx="15" />
      <rect fill="#0e161d" x="27" y="26" width="42" height="23" rx="10" />
      <circle fill="#d6e6f2" cx="39" cy="37" r="4.2" />
      <circle fill="#d6e6f2" cx="57" cy="37" r="4.2" />
      <rect fill="#d3e3f0" x="29" y="57" width="38" height="22" rx="8" />
      <path fill="#8ab4d8" d="M48 73.46C37.85 67.16 42.96 60.86 48 65.62C53.04 60.86 58.15 67.16 48 73.46Z" />
      <circle fill="#0e161d" cx="29" cy="83" r="7" />
      <circle fill="#0e161d" cx="67" cy="83" r="7" />
      <path fill="#d6e6f2" d="M83 21.5Q84.17 24.83 87.5 26Q84.17 27.17 83 30.5Q81.83 27.17 78.5 26Q81.83 24.83 83 21.5Z" />
    </g>
    <text x="120" y="292" font-family="Nunito, -apple-system, BlinkMacSystemFont, 'Segoe UI', Helvetica, Arial, sans-serif" font-size="26" font-weight="700" letter-spacing="5.6" fill="#d6e6f2">VITALS ON WHEELS</text>
    <text x="120" y="368" font-family="Nunito, -apple-system, BlinkMacSystemFont, 'Segoe UI', Helvetica, Arial, sans-serif" font-size="64" font-weight="800" fill="#ffffff">Vital Monitoring Robot</text>
    <text x="120" y="424" font-family="Nunito, -apple-system, BlinkMacSystemFont, 'Segoe UI', Helvetica, Arial, sans-serif" font-size="30" font-weight="500" fill="#c9d1ce">A robot prototype that reads heart rate and sends it to a</text>
    <text x="120" y="464" font-family="Nunito, -apple-system, BlinkMacSystemFont, 'Segoe UI', Helvetica, Arial, sans-serif" font-size="30" font-weight="500" fill="#c9d1ce">website.</text>
    <text x="120" y="548" font-family="Nunito, -apple-system, BlinkMacSystemFont, 'Segoe UI', Helvetica, Arial, sans-serif" font-size="26" font-weight="600" letter-spacing="1.6" fill="#8f9a96">C++  •  Hackathon</text>
    <text x="120" y="598" font-family="Nunito, -apple-system, BlinkMacSystemFont, 'Segoe UI', Helvetica, Arial, sans-serif" font-size="24" font-weight="600" letter-spacing="1.2" fill="#6f7a76">github.com/Kurtis24/UtraHacks</text>
    <rect x="0" y="634" width="1280" height="6" fill="#8ab4d8" fill-opacity="0.85" />
</svg>
